<svg overflow="hidden" xmlns="http://www.w3.org/2000/svg" xmlns:xlink="http://www.w3.org/1999/xlink" viewBox="0 0 834.12 713.29"><defs><style>.cls-1,.cls-12{fill:none;}.cls-2{isolation:isolate;}.cls-3{fill:url(#linear-gradient);}.cls-4{clip-path:url(#clip-path);}.cls-10,.cls-5,.cls-6,.cls-7,.cls-8,.cls-9{opacity:0.74;mix-blend-mode:screen;}.cls-5{fill:url(#linear-gradient-2);}.cls-6{fill:url(#linear-gradient-3);}.cls-7{fill:url(#linear-gradient-4);}.cls-8{fill:url(#linear-gradient-5);}.cls-9{fill:url(#linear-gradient-6);}.cls-10{fill:url(#linear-gradient-7);}.cls-11{mix-blend-mode:overlay;}.cls-12{stroke:#fff;stroke-linecap:round;stroke-linejoin:round;stroke-width:2px;}.cls-13{fill:#fff;}.cls-14{clip-path:url(#clip-path-2);}.cls-15{clip-path:url(#clip-path-3);}.cls-16{clip-path:url(#clip-path-4);}</style><linearGradient id="linear-gradient" x1="368.32" y1="131.55" x2="368.32" y2="477.57" gradientUnits="userSpaceOnUse"><stop offset="0" stop-color="#2d0066"/><stop offset="1" stop-color="#570997"/></linearGradient><clipPath id="clip-path" transform="translate(83.37 123.21)"><rect class="cls-1" width="569.91" height="356.19" rx="6.29"/></clipPath><linearGradient id="linear-gradient-2" x1="377.17" y1="108.92" x2="522.76" y2="252.65" gradientUnits="userSpaceOnUse"><stop offset="0" stop-color="#651fff"/><stop offset="1"/></linearGradient><linearGradient id="linear-gradient-3" x1="403.71" y1="130.35" x2="434.19" y2="3.03" gradientUnits="userSpaceOnUse"><stop offset="0" stop-color="#4064ff"/><stop offset="1"/></linearGradient><linearGradient id="linear-gradient-4" x1="284" y1="151.66" x2="628.66" y2="160.69" xlink:href="#linear-gradient-3"/><linearGradient id="linear-gradient-5" x1="400.89" y1="220.45" x2="406.89" y2="399.45" gradientUnits="userSpaceOnUse"><stop offset="0" stop-color="#d500f9"/><stop offset="1"/></linearGradient><linearGradient id="linear-gradient-6" x1="125.88" y1="287.76" x2="128.54" y2="377.76" gradientUnits="userSpaceOnUse"><stop offset="0" stop-color="#448aff"/><stop offset="1"/></linearGradient><linearGradient id="linear-gradient-7" x1="388.28" y1="212.35" x2="419.28" y2="-35.65" xlink:href="#linear-gradient-5"/><clipPath id="clip-path-2" transform="translate(83.37 123.21)"><circle class="cls-1" cx="395.42" cy="228.5" r="50.4"/></clipPath><clipPath id="clip-path-3" transform="translate(83.37 123.21)"><circle class="cls-1" cx="261.56" cy="-15.26" r="50.4" transform="translate(87.4 180.48) rotate(-45)"/></clipPath><clipPath id="clip-path-4" transform="translate(83.37 123.21)"><circle class="cls-1" cx="552.92" cy="365.48" r="86.17" transform="translate(-96.49 498.02) rotate(-45)"/></clipPath></defs><g class="cls-2"><g id="Layer_2" data-name="Layer 2"><g id="OBJECTS"><rect class="cls-3" x="83.37" y="123.21" width="569.91" height="356.19"/><g class="cls-4"><path class="cls-5" d="M575.05,61.56c.65,43.21-8.65,116.2-124.36,124.38-94.59,6.68-156.68,43.57-172,105.55-13.3,53.62,23.13,138.19,158,134.21,139.08-4.11,182.91-148.21,169.26-201.88S608.74,96.44,674.39,95.3c31.19-.54,11.48-33.41-19.06-54.92C621.57,16.61,574.1-1.66,575.05,61.56Z" transform="translate(83.37 123.21)"/><path class="cls-6" d="M304.69-92.74C281-60.46,271.77,62.36,359.81,105.7s207.25,3.73,227.57-85.33S531.16-2.66,479-56.84,350.48-155,304.69-92.74Z" transform="translate(83.37 123.21)"/><path class="cls-7" d="M394.49-40c-13.7,41.11,45.34,86-23.33,150.67-43.93,41.37-79.39,116-16.46,198S518.16,406,637.16,383s-71-93-21-216,2.33-187-78.83-222S409.83-86,394.49-40Z" transform="translate(83.37 123.21)"/><path class="cls-8" d="M648.2,236.2c-56.43-8.61-94.14,139.27-265.54,51.64C277.37,234,197.37,265,151.72,300.83,86.16,352.34,47.32,452.1,71.5,556S246.19,498.33,313,439.88s216.55-21.6,280-13c28.44,3.86,102.33,17.17,131.47-20.58C796,313.62,705,244.86,648.2,236.2Z" transform="translate(83.37 123.21)"/><path class="cls-9" d="M-21.77,320.7c38.75-25.23,120.66-36.66,202-12S324.61,392.7,343.42,468s-133.19-74.67-209.86-4.67S-76.44,512-83.11,435.86C-86.83,393.33-50.44,339.37-21.77,320.7Z" transform="translate(83.37 123.21)"/><path class="cls-10" d="M184.16-54.66c8,61,35,191,215,119s236,73,236,73v-182Z" transform="translate(83.37 123.21)"/><g class="cls-11"><circle class="cls-12" cx="406.6" cy="222.72" r="5.33"/><path class="cls-12" d="M484.55,108.48a4.48,4.48,0,1,1-4.48-4.49A4.49,4.49,0,0,1,484.55,108.48Z" transform="translate(83.37 123.21)"/><path class="cls-12" d="M485.4,194.67a5.34,5.34,0,1,1-5.33-5.33A5.33,5.33,0,0,1,485.4,194.67Z" transform="translate(83.37 123.21)"/><path class="cls-12" d="M89.83,318a5.34,5.34,0,1,1-5.34-5.33A5.33,5.33,0,0,1,89.83,318Z" transform="translate(83.37 123.21)"/><circle class="cls-12" cx="470.53" cy="441.23" r="5.33"/><path class="cls-12" d="M356.58,68.49c3.6,0,3.6,5.34,7.21,5.34s3.6-5.34,7.21-5.34,3.6,5.34,7.21,5.34,3.61-5.34,7.22-5.34,3.6,5.34,7.21,5.34,3.61-5.34,7.22-5.34,3.61,5.34,7.21,5.34" transform="translate(83.37 123.21)"/><path class="cls-12" d="M488.86,247.17c3.61,0,3.61,5.35,7.21,5.35s3.61-5.35,7.21-5.35,3.61,5.35,7.21,5.35,3.61-5.35,7.22-5.35,3.61,5.35,7.21,5.35,3.61-5.35,7.22-5.35,3.61,5.35,7.22,5.35" transform="translate(83.37 123.21)"/><path class="cls-12" d="M150.58,328c3.6,0,3.6,5.35,7.21,5.35S161.39,328,165,328s3.61,5.35,7.21,5.35,3.61-5.35,7.22-5.35,3.6,5.35,7.21,5.35,3.61-5.35,7.22-5.35,3.61,5.35,7.22,5.35" transform="translate(83.37 123.21)"/><line class="cls-12" x1="489.69" y1="262.55" x2="496.53" y2="269.38"/><line class="cls-12" x1="489.69" y1="269.38" x2="496.53" y2="262.55"/><line class="cls-12" x1="353.53" y1="181.95" x2="360.36" y2="188.78"/><line class="cls-12" x1="353.53" y1="188.78" x2="360.36" y2="181.95"/><line class="cls-12" x1="294.53" y1="414.72" x2="301.36" y2="421.55"/><line class="cls-12" x1="294.53" y1="421.55" x2="301.36" y2="414.72"/><path class="cls-13" d="M251.93,289.19a1.85,1.85,0,1,1-1.85-1.85A1.85,1.85,0,0,1,251.93,289.19Z" transform="translate(83.37 123.21)"/><path class="cls-13" d="M262.75,289.19a1.85,1.85,0,1,1-1.85-1.85A1.85,1.85,0,0,1,262.75,289.19Z" transform="translate(83.37 123.21)"/><path class="cls-13" d="M273.58,289.19a1.86,1.86,0,1,1-1.86-1.85A1.85,1.85,0,0,1,273.58,289.19Z" transform="translate(83.37 123.21)"/><path class="cls-13" d="M284.4,289.19a1.86,1.86,0,1,1-1.85-1.85A1.85,1.85,0,0,1,284.4,289.19Z" transform="translate(83.37 123.21)"/><path class="cls-13" d="M295.22,289.19a1.86,1.86,0,1,1-1.85-1.85A1.85,1.85,0,0,1,295.22,289.19Z" transform="translate(83.37 123.21)"/><path class="cls-13" d="M306,289.19a1.85,1.85,0,1,1-1.85-1.85A1.85,1.85,0,0,1,306,289.19Z" transform="translate(83.37 123.21)"/><path class="cls-13" d="M316.86,289.19a1.85,1.85,0,1,1-1.85-1.85A1.85,1.85,0,0,1,316.86,289.19Z" transform="translate(83.37 123.21)"/><path class="cls-13" d="M327.69,289.19a1.86,1.86,0,1,1-1.86-1.85A1.85,1.85,0,0,1,327.69,289.19Z" transform="translate(83.37 123.21)"/><path class="cls-13" d="M251.93,300a1.85,1.85,0,1,1-1.85-1.85A1.85,1.85,0,0,1,251.93,300Z" transform="translate(83.37 123.21)"/><path class="cls-13" d="M262.75,300a1.85,1.85,0,1,1-1.85-1.85A1.85,1.85,0,0,1,262.75,300Z" transform="translate(83.37 123.21)"/><path class="cls-13" d="M273.58,300a1.86,1.86,0,1,1-1.86-1.85A1.86,1.86,0,0,1,273.58,300Z" transform="translate(83.37 123.21)"/><path class="cls-13" d="M284.4,300a1.86,1.86,0,1,1-1.85-1.85A1.85,1.85,0,0,1,284.4,300Z" transform="translate(83.37 123.21)"/><path class="cls-13" d="M295.22,300a1.86,1.86,0,1,1-1.85-1.85A1.85,1.85,0,0,1,295.22,300Z" transform="translate(83.37 123.21)"/><path class="cls-13" d="M306,300a1.85,1.85,0,1,1-1.85-1.85A1.85,1.85,0,0,1,306,300Z" transform="translate(83.37 123.21)"/><path class="cls-13" d="M316.86,300a1.85,1.85,0,1,1-1.85-1.85A1.85,1.85,0,0,1,316.86,300Z" transform="translate(83.37 123.21)"/><path class="cls-13" d="M327.69,300a1.86,1.86,0,1,1-1.86-1.85A1.86,1.86,0,0,1,327.69,300Z" transform="translate(83.37 123.21)"/><path class="cls-13" d="M251.93,310.83a1.85,1.85,0,1,1-1.85-1.85A1.85,1.85,0,0,1,251.93,310.83Z" transform="translate(83.37 123.21)"/><path class="cls-13" d="M262.75,310.83A1.85,1.85,0,1,1,260.9,309,1.85,1.85,0,0,1,262.75,310.83Z" transform="translate(83.37 123.21)"/><path class="cls-13" d="M273.58,310.83a1.86,1.86,0,1,1-1.86-1.85A1.86,1.86,0,0,1,273.58,310.83Z" transform="translate(83.37 123.21)"/><path class="cls-13" d="M284.4,310.83a1.86,1.86,0,1,1-1.85-1.85A1.85,1.85,0,0,1,284.4,310.83Z" transform="translate(83.37 123.21)"/><path class="cls-13" d="M295.22,310.83a1.86,1.86,0,1,1-1.85-1.85A1.85,1.85,0,0,1,295.22,310.83Z" transform="translate(83.37 123.21)"/><path class="cls-13" d="M306,310.83a1.85,1.85,0,1,1-1.85-1.85A1.85,1.85,0,0,1,306,310.83Z" transform="translate(83.37 123.21)"/><path class="cls-13" d="M316.86,310.83A1.85,1.85,0,1,1,315,309,1.85,1.85,0,0,1,316.86,310.83Z" transform="translate(83.37 123.21)"/><path class="cls-13" d="M327.69,310.83a1.86,1.86,0,1,1-1.86-1.85A1.86,1.86,0,0,1,327.69,310.83Z" transform="translate(83.37 123.21)"/><path class="cls-13" d="M251.93,321.66a1.85,1.85,0,1,1-1.85-1.86A1.85,1.85,0,0,1,251.93,321.66Z" transform="translate(83.37 123.21)"/><path class="cls-13" d="M262.75,321.66a1.85,1.85,0,1,1-1.85-1.86A1.85,1.85,0,0,1,262.75,321.66Z" transform="translate(83.37 123.21)"/><path class="cls-13" d="M273.58,321.66a1.86,1.86,0,1,1-1.86-1.86A1.85,1.85,0,0,1,273.58,321.66Z" transform="translate(83.37 123.21)"/><path class="cls-13" d="M284.4,321.66a1.86,1.86,0,1,1-1.85-1.86A1.85,1.85,0,0,1,284.4,321.66Z" transform="translate(83.37 123.21)"/><path class="cls-13" d="M295.22,321.66a1.86,1.86,0,1,1-1.85-1.86A1.85,1.85,0,0,1,295.22,321.66Z" transform="translate(83.37 123.21)"/><path class="cls-13" d="M306,321.66a1.85,1.85,0,1,1-1.85-1.86A1.85,1.85,0,0,1,306,321.66Z" transform="translate(83.37 123.21)"/><path class="cls-13" d="M316.86,321.66A1.85,1.85,0,1,1,315,319.8,1.85,1.85,0,0,1,316.86,321.66Z" transform="translate(83.37 123.21)"/><path class="cls-13" d="M327.69,321.66a1.86,1.86,0,1,1-1.86-1.86A1.85,1.85,0,0,1,327.69,321.66Z" transform="translate(83.37 123.21)"/><path class="cls-13" d="M251.93,332.48a1.85,1.85,0,1,1-1.85-1.86A1.85,1.85,0,0,1,251.93,332.48Z" transform="translate(83.37 123.21)"/><path class="cls-13" d="M262.75,332.48a1.85,1.85,0,1,1-1.85-1.86A1.85,1.85,0,0,1,262.75,332.48Z" transform="translate(83.37 123.21)"/><path class="cls-13" d="M273.58,332.48a1.86,1.86,0,1,1-1.86-1.86A1.85,1.85,0,0,1,273.58,332.48Z" transform="translate(83.37 123.21)"/><path class="cls-13" d="M284.4,332.48a1.86,1.86,0,1,1-1.85-1.86A1.85,1.85,0,0,1,284.4,332.48Z" transform="translate(83.37 123.21)"/><path class="cls-13" d="M295.22,332.48a1.86,1.86,0,1,1-1.85-1.86A1.85,1.85,0,0,1,295.22,332.48Z" transform="translate(83.37 123.21)"/><path class="cls-13" d="M306,332.48a1.85,1.85,0,1,1-1.85-1.86A1.85,1.85,0,0,1,306,332.48Z" transform="translate(83.37 123.21)"/><path class="cls-13" d="M316.86,332.48a1.85,1.85,0,1,1-1.85-1.86A1.85,1.85,0,0,1,316.86,332.48Z" transform="translate(83.37 123.21)"/><path class="cls-13" d="M327.69,332.48a1.86,1.86,0,1,1-1.86-1.86A1.85,1.85,0,0,1,327.69,332.48Z" transform="translate(83.37 123.21)"/><path class="cls-13" d="M298.76,126.71a1.86,1.86,0,1,1-1.86-1.85A1.85,1.85,0,0,1,298.76,126.71Z" transform="translate(83.37 123.21)"/><path class="cls-13" d="M309.58,126.71a1.86,1.86,0,1,1-1.85-1.85A1.85,1.85,0,0,1,309.58,126.71Z" transform="translate(83.37 123.21)"/><path class="cls-13" d="M320.4,126.71a1.86,1.86,0,1,1-1.85-1.85A1.85,1.85,0,0,1,320.4,126.71Z" transform="translate(83.37 123.21)"/><path class="cls-13" d="M331.22,126.71a1.85,1.85,0,1,1-1.85-1.85A1.85,1.85,0,0,1,331.22,126.71Z" transform="translate(83.37 123.21)"/><path class="cls-13" d="M342,126.71a1.85,1.85,0,1,1-1.85-1.85A1.85,1.85,0,0,1,342,126.71Z" transform="translate(83.37 123.21)"/><path class="cls-13" d="M352.87,126.71a1.86,1.86,0,1,1-1.86-1.85A1.85,1.85,0,0,1,352.87,126.71Z" transform="translate(83.37 123.21)"/><path class="cls-13" d="M298.76,137.53a1.86,1.86,0,1,1-1.86-1.85A1.85,1.85,0,0,1,298.76,137.53Z" transform="translate(83.37 123.21)"/><path class="cls-13" d="M309.58,137.53a1.86,1.86,0,1,1-1.85-1.85A1.85,1.85,0,0,1,309.58,137.53Z" transform="translate(83.37 123.21)"/><path class="cls-13" d="M320.4,137.53a1.86,1.86,0,1,1-1.85-1.85A1.85,1.85,0,0,1,320.4,137.53Z" transform="translate(83.37 123.21)"/><path class="cls-13" d="M331.22,137.53a1.85,1.85,0,1,1-1.85-1.85A1.85,1.85,0,0,1,331.22,137.53Z" transform="translate(83.37 123.21)"/><path class="cls-13" d="M342,137.53a1.85,1.85,0,1,1-1.85-1.85A1.85,1.85,0,0,1,342,137.53Z" transform="translate(83.37 123.21)"/><path class="cls-13" d="M352.87,137.53a1.86,1.86,0,1,1-1.86-1.85A1.85,1.85,0,0,1,352.87,137.53Z" transform="translate(83.37 123.21)"/><path class="cls-13" d="M298.76,148.35a1.86,1.86,0,1,1-1.86-1.85A1.86,1.86,0,0,1,298.76,148.35Z" transform="translate(83.37 123.21)"/><path class="cls-13" d="M309.58,148.35a1.86,1.86,0,1,1-1.85-1.85A1.85,1.85,0,0,1,309.58,148.35Z" transform="translate(83.37 123.21)"/><path class="cls-13" d="M320.4,148.35a1.86,1.86,0,1,1-1.85-1.85A1.85,1.85,0,0,1,320.4,148.35Z" transform="translate(83.37 123.21)"/><path class="cls-13" d="M331.22,148.35a1.85,1.85,0,1,1-1.85-1.85A1.85,1.85,0,0,1,331.22,148.35Z" transform="translate(83.37 123.21)"/><path class="cls-13" d="M342,148.35a1.85,1.85,0,1,1-1.85-1.85A1.85,1.85,0,0,1,342,148.35Z" transform="translate(83.37 123.21)"/><path class="cls-13" d="M352.87,148.35A1.86,1.86,0,1,1,351,146.5,1.86,1.86,0,0,1,352.87,148.35Z" transform="translate(83.37 123.21)"/><path class="cls-13" d="M298.76,159.18a1.86,1.86,0,1,1-1.86-1.86A1.85,1.85,0,0,1,298.76,159.18Z" transform="translate(83.37 123.21)"/><path class="cls-13" d="M309.58,159.18a1.86,1.86,0,1,1-1.85-1.86A1.85,1.85,0,0,1,309.58,159.18Z" transform="translate(83.37 123.21)"/><path class="cls-13" d="M320.4,159.18a1.86,1.86,0,1,1-1.85-1.86A1.85,1.85,0,0,1,320.4,159.18Z" transform="translate(83.37 123.21)"/><path class="cls-13" d="M331.22,159.18a1.85,1.85,0,1,1-1.85-1.86A1.85,1.85,0,0,1,331.22,159.18Z" transform="translate(83.37 123.21)"/><path class="cls-13" d="M342,159.18a1.85,1.85,0,1,1-1.85-1.86A1.85,1.85,0,0,1,342,159.18Z" transform="translate(83.37 123.21)"/><path class="cls-13" d="M352.87,159.18a1.86,1.86,0,1,1-1.86-1.86A1.85,1.85,0,0,1,352.87,159.18Z" transform="translate(83.37 123.21)"/><path class="cls-13" d="M298.76,170a1.86,1.86,0,1,1-1.86-1.86A1.85,1.85,0,0,1,298.76,170Z" transform="translate(83.37 123.21)"/><path class="cls-13" d="M309.58,170a1.86,1.86,0,1,1-1.85-1.86A1.85,1.85,0,0,1,309.58,170Z" transform="translate(83.37 123.21)"/><path class="cls-13" d="M320.4,170a1.86,1.86,0,1,1-1.85-1.86A1.85,1.85,0,0,1,320.4,170Z" transform="translate(83.37 123.21)"/><path class="cls-13" d="M331.22,170a1.85,1.85,0,1,1-1.85-1.86A1.85,1.85,0,0,1,331.22,170Z" transform="translate(83.37 123.21)"/><path class="cls-13" d="M342,170a1.85,1.85,0,1,1-1.85-1.86A1.85,1.85,0,0,1,342,170Z" transform="translate(83.37 123.21)"/><path class="cls-13" d="M352.87,170a1.86,1.86,0,1,1-1.86-1.86A1.85,1.85,0,0,1,352.87,170Z" transform="translate(83.37 123.21)"/><path class="cls-13" d="M554.77,68.89A1.85,1.85,0,1,1,556.63,67,1.85,1.85,0,0,1,554.77,68.89Z" transform="translate(83.37 123.21)"/><path class="cls-13" d="M554.77,79.72a1.86,1.86,0,1,1,1.86-1.86A1.85,1.85,0,0,1,554.77,79.72Z" transform="translate(83.37 123.21)"/><path class="cls-13" d="M554.77,90.54a1.86,1.86,0,1,1,1.86-1.85A1.85,1.85,0,0,1,554.77,90.54Z" transform="translate(83.37 123.21)"/><path class="cls-13" d="M554.77,101.36a1.86,1.86,0,1,1,1.86-1.85A1.85,1.85,0,0,1,554.77,101.36Z" transform="translate(83.37 123.21)"/><path class="cls-13" d="M554.77,112.18a1.85,1.85,0,1,1,1.86-1.85A1.85,1.85,0,0,1,554.77,112.18Z" transform="translate(83.37 123.21)"/><path class="cls-13" d="M554.77,123a1.85,1.85,0,1,1,1.86-1.85A1.85,1.85,0,0,1,554.77,123Z" transform="translate(83.37 123.21)"/><path class="cls-13" d="M554.77,133.83a1.86,1.86,0,1,1,1.86-1.86A1.85,1.85,0,0,1,554.77,133.83Z" transform="translate(83.37 123.21)"/><path class="cls-13" d="M554.77,144.65a1.86,1.86,0,1,1,1.86-1.86A1.85,1.85,0,0,1,554.77,144.65Z" transform="translate(83.37 123.21)"/><path class="cls-13" d="M544,68.89A1.85,1.85,0,1,1,545.8,67,1.85,1.85,0,0,1,544,68.89Z" transform="translate(83.37 123.21)"/><path class="cls-13" d="M544,79.72a1.86,1.86,0,1,1,1.85-1.86A1.85,1.85,0,0,1,544,79.72Z" transform="translate(83.37 123.21)"/><path class="cls-13" d="M544,90.54a1.86,1.86,0,1,1,1.85-1.85A1.85,1.85,0,0,1,544,90.54Z" transform="translate(83.37 123.21)"/><path class="cls-13" d="M544,101.36a1.86,1.86,0,1,1,1.85-1.85A1.85,1.85,0,0,1,544,101.36Z" transform="translate(83.37 123.21)"/><path class="cls-13" d="M544,112.18a1.85,1.85,0,1,1,1.85-1.85A1.85,1.85,0,0,1,544,112.18Z" transform="translate(83.37 123.21)"/><path class="cls-13" d="M544,123a1.85,1.85,0,1,1,1.85-1.85A1.85,1.85,0,0,1,544,123Z" transform="translate(83.37 123.21)"/><path class="cls-13" d="M544,133.83A1.86,1.86,0,1,1,545.8,132,1.85,1.85,0,0,1,544,133.83Z" transform="translate(83.37 123.21)"/><path class="cls-13" d="M544,144.65a1.86,1.86,0,1,1,1.85-1.86A1.85,1.85,0,0,1,544,144.65Z" transform="translate(83.37 123.21)"/><path class="cls-13" d="M533.13,68.89A1.85,1.85,0,1,1,535,67,1.85,1.85,0,0,1,533.13,68.89Z" transform="translate(83.37 123.21)"/><path class="cls-13" d="M533.13,79.72A1.86,1.86,0,1,1,535,77.86,1.85,1.85,0,0,1,533.13,79.72Z" transform="translate(83.37 123.21)"/><path class="cls-13" d="M533.13,90.54A1.86,1.86,0,1,1,535,88.69,1.85,1.85,0,0,1,533.13,90.54Z" transform="translate(83.37 123.21)"/><path class="cls-13" d="M533.13,101.36A1.86,1.86,0,1,1,535,99.51,1.85,1.85,0,0,1,533.13,101.36Z" transform="translate(83.37 123.21)"/><path class="cls-13" d="M533.13,112.18a1.85,1.85,0,1,1,1.85-1.85A1.85,1.85,0,0,1,533.13,112.18Z" transform="translate(83.37 123.21)"/><path class="cls-13" d="M533.13,123a1.85,1.85,0,1,1,1.85-1.85A1.85,1.85,0,0,1,533.13,123Z" transform="translate(83.37 123.21)"/><path class="cls-13" d="M533.13,133.83A1.86,1.86,0,1,1,535,132,1.85,1.85,0,0,1,533.13,133.83Z" transform="translate(83.37 123.21)"/><path class="cls-13" d="M533.13,144.65a1.86,1.86,0,1,1,1.85-1.86A1.85,1.85,0,0,1,533.13,144.65Z" transform="translate(83.37 123.21)"/><path class="cls-13" d="M522.31,68.89A1.85,1.85,0,1,1,524.16,67,1.85,1.85,0,0,1,522.31,68.89Z" transform="translate(83.37 123.21)"/><path class="cls-13" d="M522.31,79.72a1.86,1.86,0,1,1,1.85-1.86A1.86,1.86,0,0,1,522.31,79.72Z" transform="translate(83.37 123.21)"/><path class="cls-13" d="M522.31,90.54a1.86,1.86,0,1,1,1.85-1.85A1.85,1.85,0,0,1,522.31,90.54Z" transform="translate(83.37 123.21)"/><path class="cls-13" d="M522.31,101.36a1.86,1.86,0,1,1,1.85-1.85A1.85,1.85,0,0,1,522.31,101.36Z" transform="translate(83.37 123.21)"/><path class="cls-13" d="M522.31,112.18a1.85,1.85,0,1,1,1.85-1.85A1.85,1.85,0,0,1,522.31,112.18Z" transform="translate(83.37 123.21)"/><path class="cls-13" d="M522.31,123a1.85,1.85,0,1,1,1.85-1.85A1.85,1.85,0,0,1,522.31,123Z" transform="translate(83.37 123.21)"/><path class="cls-13" d="M522.31,133.83a1.86,1.86,0,1,1,1.85-1.86A1.86,1.86,0,0,1,522.31,133.83Z" transform="translate(83.37 123.21)"/><path class="cls-13" d="M522.31,144.65a1.86,1.86,0,1,1,1.85-1.86A1.86,1.86,0,0,1,522.31,144.65Z" transform="translate(83.37 123.21)"/><path class="cls-13" d="M511.49,68.89A1.85,1.85,0,1,1,513.34,67,1.85,1.85,0,0,1,511.49,68.89Z" transform="translate(83.37 123.21)"/><path class="cls-13" d="M511.49,79.72a1.86,1.86,0,1,1,1.85-1.86A1.86,1.86,0,0,1,511.49,79.72Z" transform="translate(83.37 123.21)"/><path class="cls-13" d="M511.49,90.54a1.86,1.86,0,1,1,1.85-1.85A1.85,1.85,0,0,1,511.49,90.54Z" transform="translate(83.37 123.21)"/><path class="cls-13" d="M511.49,101.36a1.86,1.86,0,1,1,1.85-1.85A1.85,1.85,0,0,1,511.49,101.36Z" transform="translate(83.37 123.21)"/><path class="cls-13" d="M511.49,112.18a1.85,1.85,0,1,1,1.85-1.85A1.85,1.85,0,0,1,511.49,112.18Z" transform="translate(83.37 123.21)"/><path class="cls-13" d="M511.49,123a1.85,1.85,0,1,1,1.85-1.85A1.85,1.85,0,0,1,511.49,123Z" transform="translate(83.37 123.21)"/><path class="cls-13" d="M511.49,133.83a1.86,1.86,0,1,1,1.85-1.86A1.86,1.86,0,0,1,511.49,133.83Z" transform="translate(83.37 123.21)"/><path class="cls-13" d="M511.49,144.65a1.86,1.86,0,1,1,1.85-1.86A1.86,1.86,0,0,1,511.49,144.65Z" transform="translate(83.37 123.21)"/><path class="cls-13" d="M508.83,15.5a1.85,1.85,0,1,1,1.85,1.85A1.85,1.85,0,0,1,508.83,15.5Z" transform="translate(83.37 123.21)"/><path class="cls-13" d="M498,15.5a1.86,1.86,0,1,1,1.86,1.85A1.85,1.85,0,0,1,498,15.5Z" transform="translate(83.37 123.21)"/><path class="cls-13" d="M487.18,15.5A1.86,1.86,0,1,1,489,17.35,1.85,1.85,0,0,1,487.18,15.5Z" transform="translate(83.37 123.21)"/><path class="cls-13" d="M476.36,15.5a1.86,1.86,0,1,1,1.85,1.85A1.85,1.85,0,0,1,476.36,15.5Z" transform="translate(83.37 123.21)"/><path class="cls-13" d="M465.54,15.5a1.85,1.85,0,1,1,1.85,1.85A1.85,1.85,0,0,1,465.54,15.5Z" transform="translate(83.37 123.21)"/><path class="cls-13" d="M454.72,15.5a1.85,1.85,0,1,1,1.85,1.85A1.85,1.85,0,0,1,454.72,15.5Z" transform="translate(83.37 123.21)"/><path class="cls-13" d="M443.89,15.5a1.86,1.86,0,1,1,1.86,1.85A1.85,1.85,0,0,1,443.89,15.5Z" transform="translate(83.37 123.21)"/><path class="cls-13" d="M433.07,15.5a1.86,1.86,0,1,1,1.86,1.85A1.85,1.85,0,0,1,433.07,15.5Z" transform="translate(83.37 123.21)"/><path class="cls-13" d="M508.83,4.68a1.85,1.85,0,1,1,1.85,1.85A1.85,1.85,0,0,1,508.83,4.68Z" transform="translate(83.37 123.21)"/><path class="cls-13" d="M498,4.68a1.86,1.86,0,1,1,1.86,1.85A1.85,1.85,0,0,1,498,4.68Z" transform="translate(83.37 123.21)"/><path class="cls-13" d="M487.18,4.68A1.86,1.86,0,1,1,489,6.53,1.85,1.85,0,0,1,487.18,4.68Z" transform="translate(83.37 123.21)"/><path class="cls-13" d="M476.36,4.68a1.86,1.86,0,1,1,1.85,1.85A1.85,1.85,0,0,1,476.36,4.68Z" transform="translate(83.37 123.21)"/><path class="cls-13" d="M465.54,4.68a1.85,1.85,0,1,1,1.85,1.85A1.85,1.85,0,0,1,465.54,4.68Z" transform="translate(83.37 123.21)"/><path class="cls-13" d="M454.72,4.68a1.85,1.85,0,1,1,1.85,1.85A1.85,1.85,0,0,1,454.72,4.68Z" transform="translate(83.37 123.21)"/><path class="cls-13" d="M443.89,4.68a1.86,1.86,0,1,1,1.86,1.85A1.85,1.85,0,0,1,443.89,4.68Z" transform="translate(83.37 123.21)"/><path class="cls-13" d="M433.07,4.68a1.86,1.86,0,1,1,1.86,1.85A1.85,1.85,0,0,1,433.07,4.68Z" transform="translate(83.37 123.21)"/><circle class="cls-13" cx="594.05" cy="117.07" r="1.85"/><path class="cls-13" d="M498-6.14A1.86,1.86,0,0,1,499.86-8a1.85,1.85,0,0,1,1.85,1.86,1.85,1.85,0,0,1-1.85,1.85A1.85,1.85,0,0,1,498-6.14Z" transform="translate(83.37 123.21)"/><path class="cls-13" d="M487.18-6.14A1.85,1.85,0,0,1,489-8a1.86,1.86,0,0,1,1.86,1.86A1.85,1.85,0,0,1,489-4.29,1.85,1.85,0,0,1,487.18-6.14Z" transform="translate(83.37 123.21)"/><path class="cls-13" d="M476.36-6.14A1.85,1.85,0,0,1,478.21-8a1.86,1.86,0,0,1,1.86,1.86,1.85,1.85,0,0,1-1.86,1.85A1.85,1.85,0,0,1,476.36-6.14Z" transform="translate(83.37 123.21)"/><path class="cls-13" d="M465.54-6.14A1.85,1.85,0,0,1,467.39-8a1.85,1.85,0,0,1,1.85,1.86,1.85,1.85,0,0,1-1.85,1.85A1.85,1.85,0,0,1,465.54-6.14Z" transform="translate(83.37 123.21)"/><path class="cls-13" d="M454.72-6.14A1.85,1.85,0,0,1,456.57-8a1.85,1.85,0,0,1,1.85,1.86,1.85,1.85,0,0,1-1.85,1.85A1.85,1.85,0,0,1,454.72-6.14Z" transform="translate(83.37 123.21)"/><path class="cls-13" d="M443.89-6.14A1.86,1.86,0,0,1,445.75-8a1.85,1.85,0,0,1,1.85,1.86,1.85,1.85,0,0,1-1.85,1.85A1.85,1.85,0,0,1,443.89-6.14Z" transform="translate(83.37 123.21)"/><path class="cls-13" d="M433.07-6.14A1.86,1.86,0,0,1,434.93-8a1.85,1.85,0,0,1,1.85,1.86,1.85,1.85,0,0,1-1.85,1.85A1.85,1.85,0,0,1,433.07-6.14Z" transform="translate(83.37 123.21)"/><path class="cls-13" d="M508.83-17a1.85,1.85,0,0,1,1.85-1.86A1.85,1.85,0,0,1,512.53-17a1.85,1.85,0,0,1-1.85,1.85A1.85,1.85,0,0,1,508.83-17Z" transform="translate(83.37 123.21)"/><path class="cls-13" d="M498-17a1.86,1.86,0,0,1,1.86-1.86A1.85,1.85,0,0,1,501.71-17a1.85,1.85,0,0,1-1.85,1.85A1.85,1.85,0,0,1,498-17Z" transform="translate(83.37 123.21)"/><path class="cls-13" d="M487.18-17A1.85,1.85,0,0,1,489-18.82,1.86,1.86,0,0,1,490.89-17,1.85,1.85,0,0,1,489-15.11,1.85,1.85,0,0,1,487.18-17Z" transform="translate(83.37 123.21)"/><path class="cls-13" d="M476.36-17a1.85,1.85,0,0,1,1.85-1.86A1.86,1.86,0,0,1,480.07-17a1.85,1.85,0,0,1-1.86,1.85A1.85,1.85,0,0,1,476.36-17Z" transform="translate(83.37 123.21)"/><path class="cls-13" d="M465.54-17a1.85,1.85,0,0,1,1.85-1.86A1.85,1.85,0,0,1,469.24-17a1.85,1.85,0,0,1-1.85,1.85A1.85,1.85,0,0,1,465.54-17Z" transform="translate(83.37 123.21)"/><path class="cls-13" d="M454.72-17a1.85,1.85,0,0,1,1.85-1.86A1.85,1.85,0,0,1,458.42-17a1.85,1.85,0,0,1-1.85,1.85A1.85,1.85,0,0,1,454.72-17Z" transform="translate(83.37 123.21)"/><path class="cls-13" d="M443.89-17a1.86,1.86,0,0,1,1.86-1.86A1.85,1.85,0,0,1,447.6-17a1.85,1.85,0,0,1-1.85,1.85A1.85,1.85,0,0,1,443.89-17Z" transform="translate(83.37 123.21)"/><path class="cls-13" d="M433.07-17a1.86,1.86,0,0,1,1.86-1.86A1.85,1.85,0,0,1,436.78-17a1.85,1.85,0,0,1-1.85,1.85A1.85,1.85,0,0,1,433.07-17Z" transform="translate(83.37 123.21)"/><path class="cls-13" d="M508.83-27.79a1.85,1.85,0,0,1,1.85-1.85,1.85,1.85,0,0,1,1.85,1.85,1.85,1.85,0,0,1-1.85,1.86A1.85,1.85,0,0,1,508.83-27.79Z" transform="translate(83.37 123.21)"/><path class="cls-13" d="M498-27.79a1.85,1.85,0,0,1,1.86-1.85,1.85,1.85,0,0,1,1.85,1.85,1.85,1.85,0,0,1-1.85,1.86A1.86,1.86,0,0,1,498-27.79Z" transform="translate(83.37 123.21)"/><path class="cls-13" d="M487.18-27.79A1.85,1.85,0,0,1,489-29.64a1.85,1.85,0,0,1,1.86,1.85A1.86,1.86,0,0,1,489-25.93,1.85,1.85,0,0,1,487.18-27.79Z" transform="translate(83.37 123.21)"/><path class="cls-13" d="M476.36-27.79a1.85,1.85,0,0,1,1.85-1.85,1.85,1.85,0,0,1,1.86,1.85,1.86,1.86,0,0,1-1.86,1.86A1.85,1.85,0,0,1,476.36-27.79Z" transform="translate(83.37 123.21)"/><path class="cls-13" d="M465.54-27.79a1.85,1.85,0,0,1,1.85-1.85,1.85,1.85,0,0,1,1.85,1.85,1.85,1.85,0,0,1-1.85,1.86A1.85,1.85,0,0,1,465.54-27.79Z" transform="translate(83.37 123.21)"/><path class="cls-13" d="M454.72-27.79a1.85,1.85,0,0,1,1.85-1.85,1.85,1.85,0,0,1,1.85,1.85,1.85,1.85,0,0,1-1.85,1.86A1.85,1.85,0,0,1,454.72-27.79Z" transform="translate(83.37 123.21)"/><path class="cls-13" d="M443.89-27.79a1.85,1.85,0,0,1,1.86-1.85,1.85,1.85,0,0,1,1.85,1.85,1.85,1.85,0,0,1-1.85,1.86A1.86,1.86,0,0,1,443.89-27.79Z" transform="translate(83.37 123.21)"/><path class="cls-13" d="M433.07-27.79a1.85,1.85,0,0,1,1.86-1.85,1.85,1.85,0,0,1,1.85,1.85,1.85,1.85,0,0,1-1.85,1.86A1.86,1.86,0,0,1,433.07-27.79Z" transform="translate(83.37 123.21)"/><g class="cls-14"><line class="cls-12" x1="429.71" y1="266.65" x2="254.79" y2="441.57"/><line class="cls-12" x1="436.79" y1="266.65" x2="261.87" y2="441.57"/><line class="cls-12" x1="443.87" y1="266.65" x2="268.94" y2="441.57"/><line class="cls-12" x1="450.94" y1="266.65" x2="276.02" y2="441.57"/><line class="cls-12" x1="458.02" y1="266.65" x2="283.1" y2="441.57"/><line class="cls-12" x1="465.1" y1="266.65" x2="290.17" y2="441.57"/><line class="cls-12" x1="472.17" y1="266.65" x2="297.25" y2="441.57"/><line class="cls-12" x1="479.25" y1="266.65" x2="304.33" y2="441.57"/><line class="cls-12" x1="486.33" y1="266.65" x2="311.4" y2="441.57"/><line class="cls-12" x1="493.4" y1="266.65" x2="318.48" y2="441.57"/><line class="cls-12" x1="500.48" y1="266.65" x2="325.56" y2="441.57"/><line class="cls-12" x1="507.56" y1="266.65" x2="332.63" y2="441.57"/><line class="cls-12" x1="514.63" y1="266.65" x2="339.71" y2="441.57"/><line class="cls-12" x1="521.71" y1="266.65" x2="346.79" y2="441.57"/><line class="cls-12" x1="528.79" y1="266.65" x2="353.86" y2="441.57"/><line class="cls-12" x1="535.86" y1="266.65" x2="360.94" y2="441.57"/><line class="cls-12" x1="542.94" y1="266.65" x2="368.02" y2="441.57"/><line class="cls-12" x1="550.02" y1="266.65" x2="375.09" y2="441.57"/><line class="cls-12" x1="557.09" y1="266.65" x2="382.17" y2="441.57"/><line class="cls-12" x1="564.17" y1="266.65" x2="389.25" y2="441.57"/><line class="cls-12" x1="571.25" y1="266.65" x2="396.32" y2="441.57"/><line class="cls-12" x1="578.32" y1="266.65" x2="403.4" y2="441.57"/><line class="cls-12" x1="585.4" y1="266.65" x2="410.48" y2="441.57"/><line class="cls-12" x1="592.48" y1="266.65" x2="417.55" y2="441.57"/><line class="cls-12" x1="599.55" y1="266.65" x2="424.63" y2="441.57"/><line class="cls-12" x1="606.63" y1="266.65" x2="431.71" y2="441.57"/><line class="cls-12" x1="613.71" y1="266.65" x2="438.79" y2="441.57"/><line class="cls-12" x1="620.79" y1="266.65" x2="445.86" y2="441.57"/><line class="cls-12" x1="627.86" y1="266.65" x2="452.94" y2="441.57"/><line class="cls-12" x1="634.94" y1="266.65" x2="460.02" y2="441.57"/><line class="cls-12" x1="642.02" y1="266.65" x2="467.09" y2="441.57"/><line class="cls-12" x1="649.09" y1="266.65" x2="474.17" y2="441.57"/><line class="cls-12" x1="656.17" y1="266.65" x2="481.25" y2="441.57"/><line class="cls-12" x1="663.25" y1="266.65" x2="488.32" y2="441.57"/><line class="cls-12" x1="670.32" y1="266.65" x2="495.4" y2="441.57"/></g><g class="cls-15"><line class="cls-12" x1="295.85" y1="22.89" x2="120.93" y2="197.81"/><line class="cls-12" x1="302.93" y1="22.89" x2="128" y2="197.81"/><line class="cls-12" x1="310" y1="22.89" x2="135.08" y2="197.81"/><line class="cls-12" x1="317.08" y1="22.89" x2="142.16" y2="197.81"/><line class="cls-12" x1="324.16" y1="22.89" x2="149.23" y2="197.81"/><line class="cls-12" x1="331.23" y1="22.89" x2="156.31" y2="197.81"/><line class="cls-12" x1="338.31" y1="22.89" x2="163.39" y2="197.81"/><line class="cls-12" x1="345.39" y1="22.89" x2="170.46" y2="197.81"/><line class="cls-12" x1="352.46" y1="22.89" x2="177.54" y2="197.81"/><line class="cls-12" x1="359.54" y1="22.89" x2="184.62" y2="197.81"/><line class="cls-12" x1="366.62" y1="22.89" x2="191.7" y2="197.81"/><line class="cls-12" x1="373.69" y1="22.89" x2="198.77" y2="197.81"/><line class="cls-12" x1="380.77" y1="22.89" x2="205.85" y2="197.81"/><line class="cls-12" x1="387.85" y1="22.89" x2="212.93" y2="197.81"/><line class="cls-12" x1="394.93" y1="22.89" x2="220" y2="197.81"/><line class="cls-12" x1="402" y1="22.89" x2="227.08" y2="197.81"/><line class="cls-12" x1="409.08" y1="22.89" x2="234.16" y2="197.81"/><line class="cls-12" x1="416.16" y1="22.89" x2="241.23" y2="197.81"/><line class="cls-12" x1="423.23" y1="22.89" x2="248.31" y2="197.81"/><line class="cls-12" x1="430.31" y1="22.89" x2="255.39" y2="197.81"/><line class="cls-12" x1="437.39" y1="22.89" x2="262.46" y2="197.81"/><line class="cls-12" x1="444.46" y1="22.89" x2="269.54" y2="197.81"/><line class="cls-12" x1="451.54" y1="22.89" x2="276.62" y2="197.81"/><line class="cls-12" x1="458.62" y1="22.89" x2="283.69" y2="197.81"/><line class="cls-12" x1="465.69" y1="22.89" x2="290.77" y2="197.81"/><line class="cls-12" x1="472.77" y1="22.89" x2="297.85" y2="197.81"/><line class="cls-12" x1="479.85" y1="22.89" x2="304.92" y2="197.81"/><line class="cls-12" x1="486.92" y1="22.89" x2="312" y2="197.81"/><line class="cls-12" x1="494" y1="22.89" x2="319.08" y2="197.81"/><line class="cls-12" x1="501.08" y1="22.89" x2="326.15" y2="197.81"/><line class="cls-12" x1="508.15" y1="22.89" x2="333.23" y2="197.81"/><line class="cls-12" x1="515.23" y1="22.89" x2="340.31" y2="197.81"/><line class="cls-12" x1="522.31" y1="22.89" x2="347.38" y2="197.81"/><line class="cls-12" x1="529.38" y1="22.89" x2="354.46" y2="197.81"/><line class="cls-12" x1="536.46" y1="22.89" x2="361.54" y2="197.81"/></g><g class="cls-16"><line class="cls-12" x1="587.21" y1="403.63" x2="412.29" y2="578.56"/><line class="cls-12" x1="594.29" y1="403.63" x2="419.36" y2="578.56"/><line class="cls-12" x1="601.36" y1="403.63" x2="426.44" y2="578.56"/><line class="cls-12" x1="608.44" y1="403.63" x2="433.52" y2="578.56"/><line class="cls-12" x1="615.52" y1="403.63" x2="440.59" y2="578.56"/><line class="cls-12" x1="622.59" y1="403.63" x2="447.67" y2="578.56"/><line class="cls-12" x1="629.67" y1="403.63" x2="454.75" y2="578.56"/><line class="cls-12" x1="636.75" y1="403.63" x2="461.82" y2="578.56"/><line class="cls-12" x1="643.82" y1="403.63" x2="468.9" y2="578.56"/><line class="cls-12" x1="650.9" y1="403.63" x2="475.98" y2="578.56"/><line class="cls-12" x1="657.98" y1="403.63" x2="483.05" y2="578.56"/><line class="cls-12" x1="665.05" y1="403.63" x2="490.13" y2="578.56"/><line class="cls-12" x1="672.13" y1="403.63" x2="497.21" y2="578.56"/><line class="cls-12" x1="679.21" y1="403.63" x2="504.28" y2="578.56"/><line class="cls-12" x1="686.28" y1="403.63" x2="511.36" y2="578.56"/><line class="cls-12" x1="693.36" y1="403.63" x2="518.44" y2="578.56"/><line class="cls-12" x1="700.44" y1="403.63" x2="525.51" y2="578.56"/><line class="cls-12" x1="707.51" y1="403.63" x2="532.59" y2="578.56"/><line class="cls-12" x1="714.59" y1="403.63" x2="539.67" y2="578.56"/><line class="cls-12" x1="721.67" y1="403.63" x2="546.74" y2="578.56"/><line class="cls-12" x1="728.74" y1="403.63" x2="553.82" y2="578.56"/><line class="cls-12" x1="735.82" y1="403.63" x2="560.9" y2="578.56"/><line class="cls-12" x1="742.9" y1="403.63" x2="567.97" y2="578.56"/><line class="cls-12" x1="749.97" y1="403.63" x2="575.05" y2="578.56"/><line class="cls-12" x1="757.05" y1="403.63" x2="582.13" y2="578.56"/><line class="cls-12" x1="764.13" y1="403.63" x2="589.2" y2="578.56"/><line class="cls-12" x1="771.2" y1="403.63" x2="596.28" y2="578.56"/><line class="cls-12" x1="778.28" y1="403.63" x2="603.36" y2="578.56"/><line class="cls-12" x1="785.36" y1="403.63" x2="610.43" y2="578.56"/><line class="cls-12" x1="792.43" y1="403.63" x2="617.51" y2="578.56"/><line class="cls-12" x1="799.51" y1="403.63" x2="624.59" y2="578.56"/><line class="cls-12" x1="806.59" y1="403.63" x2="631.66" y2="578.56"/><line class="cls-12" x1="813.66" y1="403.63" x2="638.74" y2="578.56"/><line class="cls-12" x1="820.74" y1="403.63" x2="645.82" y2="578.56"/><line class="cls-12" x1="827.82" y1="403.63" x2="652.9" y2="578.56"/></g><polygon class="cls-12" points="619.88 308.39 619.88 321.29 631.05 314.84 619.88 308.39"/><polygon class="cls-12" points="533.71 185.45 526.88 174.51 520.82 185.9 533.71 185.45"/><polygon class="cls-12" points="551.17 419.5 544.34 408.56 538.28 419.95 551.17 419.5"/></g></g></g></g></g></svg>