<svg overflow="hidden" xmlns="http://www.w3.org/2000/svg" xmlns:xlink="http://www.w3.org/1999/xlink" viewBox="0 0 604.14 404.37"><defs><style>.cls-1{isolation:isolate;}.cls-2{fill:url(#linear-gradient);}.cls-12,.cls-3{fill:#fff;}.cls-3{opacity:0.09;}.cls-4{mix-blend-mode:overlay;fill:url(#radial-gradient);}.cls-5{fill:url(#radial-gradient-2);}.cls-6{fill:url(#linear-gradient-2);}.cls-7,.cls-8{fill:#282a57;}.cls-13,.cls-7{opacity:0.55;}.cls-9{fill:url(#linear-gradient-3);}.cls-10{fill:url(#linear-gradient-4);}.cls-11{fill:url(#linear-gradient-5);}</style><linearGradient id="linear-gradient" x1="302.07" y1="521.13" x2="302.07" y2="-15.31" gradientUnits="userSpaceOnUse"><stop offset="0" stop-color="#9c40e0"/><stop offset="0.04" stop-color="#9e45dc"/><stop offset="0.09" stop-color="#a554d1"/><stop offset="0.14" stop-color="#af6cbf"/><stop offset="0.19" stop-color="#be8fa5"/><stop offset="0.25" stop-color="#d1bb85"/><stop offset="0.3" stop-color="#e8f05d"/><stop offset="0.32" stop-color="#edfc54"/><stop offset="0.32" stop-color="#ecf654"/><stop offset="0.44" stop-color="#e5a154"/><stop offset="0.52" stop-color="#e06b54"/><stop offset="0.56" stop-color="#de5654"/><stop offset="0.6" stop-color="#cf5359"/><stop offset="0.69" stop-color="#a74b67"/><stop offset="0.82" stop-color="#673d7e"/><stop offset="0.97" stop-color="#102b9c"/><stop offset="1" stop-color="#0028a2"/></linearGradient><radialGradient id="radial-gradient" cx="311.75" cy="306.66" r="94.6" gradientUnits="userSpaceOnUse"><stop offset="0" stop-color="#fff"/><stop offset="0.09" stop-color="#fff" stop-opacity="0.98"/><stop offset="0.22" stop-color="#fdfeff" stop-opacity="0.91"/><stop offset="0.36" stop-color="#fbfdff" stop-opacity="0.8"/><stop offset="0.52" stop-color="#f8fcff" stop-opacity="0.65"/><stop offset="0.68" stop-color="#f4faff" stop-opacity="0.46"/><stop offset="0.85" stop-color="#eff7ff" stop-opacity="0.23"/><stop offset="1" stop-color="#eaf5ff" stop-opacity="0"/></radialGradient><radialGradient id="radial-gradient-2" cx="316.59" cy="311.73" r="107.59" gradientTransform="translate(528.09 -73.06) rotate(76.29)" gradientUnits="userSpaceOnUse"><stop offset="0" stop-color="#de5654"/><stop offset="0.17" stop-color="#e57343"/><stop offset="0.56" stop-color="#f3b21f"/><stop offset="0.85" stop-color="#fcda09"/><stop offset="1" stop-color="#ffe900"/></radialGradient><linearGradient id="linear-gradient-2" x1="299.74" y1="223.34" x2="303.36" y2="384.03" gradientUnits="userSpaceOnUse"><stop offset="0" stop-color="#de5654"/><stop offset="0.13" stop-color="#cf5254"/><stop offset="0.37" stop-color="#a74955"/><stop offset="0.7" stop-color="#683956"/><stop offset="1" stop-color="#282a57"/></linearGradient><linearGradient id="linear-gradient-3" x1="287.69" y1="138.75" x2="304.6" y2="379.18" xlink:href="#linear-gradient-2"/><linearGradient id="linear-gradient-4" x1="143.13" y1="223.15" x2="116.54" y2="356.06" xlink:href="#linear-gradient-2"/><linearGradient id="linear-gradient-5" x1="544.76" y1="229.74" x2="519.39" y2="356.59" xlink:href="#linear-gradient-2"/></defs><g class="cls-1"><g id="Layer_2" data-name="Layer 2"><g id="OBJECTS"><rect class="cls-2" width="604.14" height="402.76"/><path class="cls-3" d="M604.14,207.47c-12.64.33-31,2.13-48.27,8.68-30.21,11.5-27.79,31.35-56.79,30.3s-32.62-8.36-56.78,5.22-27.79,21.94-56.79,15.68-46.92-29-86.89-25.49S263.48,259,232.07,260s-54.37,15.67-73.71-4.18-21.74-46-56.78-46S75,236,44.79,222.42C21.21,211.82,20.46,187.85,0,178.84V402.76H604.14Z"/><path class="cls-4" d="M425.74,308.51c0,52.05-59.36,94.25-111.41,94.25s-120.58-43-120.58-95,68.53-93.48,120.58-93.48S425.74,256.46,425.74,308.51Z"/><circle class="cls-5" cx="310.55" cy="299.65" r="71.15" transform="translate(-54.15 530.36) rotate(-76.29)"/><path class="cls-6" d="M604.14,249.12c-7.86-2-16.74-4.34-19.28-5a61.86,61.86,0,0,0-12.08-1.21l-14.5,10.88L542.58,255l-13.29,9.66L516,276.76s-19.34,1.21-23,3.63-15.71,8.46-15.71,8.46l-16.91,1.2s-23-2.41-27.79-2.41-16.92-2.42-20.54-2.42-32-7.85-32-7.85-20,7.38-23.63,8.59-12.35,10.2-12.35,10.2L333.56,307s-18.13,2.42-21.75,2.42-12.08-7.25-12.08-7.25-18.13-2.42-21.75-3.63-15.71-1.21-19.33-2.41-15.71-3.63-25.38-8.46-16.91-10.88-20.54-12.08-18.12-6-25.37-4.84-20.54,3.63-29,3.63-23,0-36.24-3.63-41.08-19.33-45.91-23-29,2.41-42.29,7.25c-7.1,2.58-21.78,5.16-33.92,7V404.37H604.14Z"/><path class="cls-7" d="M263.56,378.32l163.26-2.14,38.12-38.13,18.26-24.7-8.92-24.29-13.86,1s-23-2.41-27.79-2.41c-2.94,0-8.56-.89-13.33-1.59-1.63,3.6-3.83,7.43-6.45,9.58-5.9,4.83-23.62,7.51-28.46,8.05s-11.27,8.06-15,11.28-15.58,12.89-22,14.5-18.26,3.22-23.09,2.14-11.82,0-19.34-4.83-11.27-7.52-18.79-9.66-23.63,2.68-27.39,0-23.63-14.5-33.29-22-8.06-11.82-22-19.33a65,65,0,0,0-12.89-5.22,17.59,17.59,0,0,0-3.17.18c-7.08,1.18-19.9,3.51-28.38,3.62-5.38,3.33-10.4,6.5-11.41,6.25-2.15-.54-16.65,9.66-16.65,9.66s-10.79,9.55-13.76,10.4c5,3,33.63,27.2,33.63,27.2Z"/><path class="cls-8" d="M117.16,299c-.52-.31-.79-.39-.74-.18S116.75,299.15,117.16,299Z"/><path class="cls-9" d="M604.14,283.64c-13-5.35-37.62-15.88-52.4-18.65-19.33-3.63-18.12-4.84-27.79-7.25s-37.45-7.25-44.7-1.21-35,27.79-41.08,31.41S408,300,401.92,306.07s-60.41,33.83-76.11,31.41-78.54-23-101.49-32.62S176,279.48,163.9,272.24,119.2,250.49,112,250.49s-41.08,10.87-48.33,12.08S35.83,271,20.13,271c-5.85,0-13.2.5-20.13,1.13v130.6H604.14Z"/><path class="cls-10" d="M20.13,271c-5.85,0-13.2.5-20.13,1.13v130.6H240.53C177.27,371.31,94.77,328.85,89.84,319c-8-16.12,46.72-43.5,45.11-50.75s-23-17.75-23-17.75c-7.25,0-41.08,10.87-48.33,12.08S35.83,271,20.13,271Z"/><path class="cls-11" d="M524,257.74c-8.44-2.12-30.73-6.07-41.06-3l0,1.41s-7.25,16.12-5.63,24.17,27.38,24.17,27.38,41.08c0,10.66-50.52,52-88.51,81.36h188V283.64c-13-5.35-37.62-15.88-52.4-18.65C532.41,261.36,533.62,260.15,524,257.74Z"/><path class="cls-7" d="M0,355.59c1.63,15.76,3.32,32.15,4.88,47.17H604.14V239.63l-27,3.64s5.64,12.08.81,20.13-23.36,16.92-33.84,18.53-20.94,8.06-31.41,11.28-5.64,5.64-20.94,18.53-16.12,21.74-45.11,31.41-84.58,14.5-112,13.69-97.47-17.72-112-20.13S176.84,319,163.14,310.93,122.06,292.4,113.2,290s-47.52-.81-57.19-3.23-15.3-15.3-18.53-15.3c-2.35,0-25.24,3.42-37.48,6.22Z"/><path class="cls-8" d="M604.14,246.86c-3.18,3.63-35.48,24.17-40.32,25.38s-20.54,10.87-38.66,22.95-38.66,42.29-54.37,49.54-41.08,18.12-53.16,18.12-87,1.21-96.66,0-105.11-19.33-122-24.16-62.82-31.42-73.7-35C116.57,300.76,33.33,272.5,0,261.18V402.76H604.14Z"/><path class="cls-3" d="M594.1,66.05c-2.42,8.06,4,9.67.8,15.31s-7.25,0-7.25,4.83-1.61,5.64-2.41,10.47,1.61,4.84,0,10.47-4,4-8.06,14.5-.81,8.86-4,15.31-3.22,7.25-11.27,16.11-9.67,9.66-17.73,16.11-4,7.25-12.88,16.11-16.11,16.92-25.78,22.55-13.69,8.86-23.36,11.28-16.92,4-25.78,8.06-15.3,4.83-16.91,5.63,9.66,1.62,20.94-1.61,8.06-.8,23.36-5.63,12.08-3.23,30.61-12.09,16.92-16.91,29-20.94,18.53-8.86,22.55-14.5,2.42-8.06,12.09-8.86,13.69-4,15.3-8.06,7.2-6.44,10.85-8V50.74C600.43,55,595.54,61.24,594.1,66.05Z"/><path class="cls-3" d="M431.78,232.79s-4.43-3.22-6.84-.4-7.66,0-6.85,3.22,2.82,4.43,6.44,2.82,6.45-.8,8.06-2.41S431.78,232.79,431.78,232.79Z"/><path class="cls-3" d="M567.51,117.61a45.5,45.5,0,0,0-4,9.66c-2,6.45-2,4.83-6.85,12.49s-6.44,8.86-12.08,13.69-8.86,8.46-12.49,11.28-7.25,6.44-8.86,6.85,3.63-6.85,7.65-10.07,5.24-4.43,10.47-12.49,1.62-9.26,8.46-16.11,6.85-7.25,10.47-11.28,5.64-6,8.06-8.86,6-8.46,5.24-4.83S567.51,117.61,567.51,117.61Z"/><path class="cls-3" d="M198.59,215.07c-8.86-3.22-15.31-3.22-28.2-7.25S155.89,199,143,195.74s-16.92-3.22-29.81-8.05-15.3-8.86-29.8-16.11-15.31-12.89-29-21.75-7.25-14.5-17.72-24.17-8.06-14.5-18.53-27.39A29.84,29.84,0,0,0,0,87.34v81a29.25,29.25,0,0,0,8.48-1.59c8.06-2.41,4-2.41,12.09-1.61s4.83-3.22,12.89.81,8.86,11.27,20.94,19.33,23.36,6.44,35.44,10.47,18.53,4.83,33.83,4.83,14.5,1.62,29,7.25,10.47,4.84,22.56,10.48,12.88,1.61,22.55,2.41S207.45,218.3,198.59,215.07Z"/><path class="cls-3" d="M62.45,117.61c-6.44-4.84-4.83-6.45-8.86-10.48s-10.47-8.86-16.11-15.3S35.87,83,31.84,78.14s-4-7.25-7.25-13.7-2.41-9.66-8.86-13.69-2.41-11.28-8-22.56A25.59,25.59,0,0,0,0,18.89V70c5.78,5.83,7.93,4.9,18.15,13.75,12.08,10.48,6.44,8.86,11.28,15.31s6.44,7.25,16.11,13.69,7.25,6.45,16.91,10.47,12.89,10.48,14.5,7.25S68.9,122.44,62.45,117.61Z"/><path class="cls-12" d="M549,72.5a.61.61,0,1,1-.61-.61A.6.6,0,0,1,549,72.5Z"/><circle class="cls-12" cx="128.71" cy="106.33" r="0.91"/><path class="cls-12" d="M499.15,195.64a.91.91,0,1,1-.91-.91A.91.91,0,0,1,499.15,195.64Z"/><circle class="cls-12" cx="192.04" cy="139.35" r="0.91"/><circle class="cls-12" cx="391.91" cy="79.85" r="0.91"/><circle class="cls-12" cx="219.53" cy="207.72" r="0.91"/><circle class="cls-12" cx="431.28" cy="210.24" r="0.91"/><path class="cls-12" d="M328.28,54.78a.91.91,0,1,1-.91-.91A.9.9,0,0,1,328.28,54.78Z"/><circle class="cls-12" cx="182.11" cy="57.46" r="1.93"/><circle class="cls-12" cx="76.95" cy="110.36" r="1.44"/><path class="cls-12" d="M43,231a1.44,1.44,0,1,1-1.44-1.45A1.44,1.44,0,0,1,43,231Z"/><path class="cls-12" d="M585.07,215.71a1.45,1.45,0,1,1-1.45-1.44A1.45,1.45,0,0,1,585.07,215.71Z"/><path class="cls-12" d="M27.82,155.47a1.93,1.93,0,1,1-1.93-1.93A1.93,1.93,0,0,1,27.82,155.47Z"/><g class="cls-13"><path class="cls-12" d="M555.84,17.52a.61.61,0,1,0,.61-.6A.6.6,0,0,0,555.84,17.52Z"/><circle class="cls-12" cx="480.33" cy="76.52" r="0.91"/><circle class="cls-12" cx="110.79" cy="165.84" r="0.91"/><circle class="cls-12" cx="297.78" cy="132.1" r="0.91"/><circle class="cls-12" cx="217.12" cy="50.04" r="0.91"/><circle class="cls-12" cx="177.75" cy="180.44" r="0.91"/><circle class="cls-12" cx="281.67" cy="24.97" r="0.91"/><circle class="cls-12" cx="426.93" cy="27.66" r="1.93"/><path class="cls-12" d="M530.64,80.55a1.44,1.44,0,1,0,1.44-1.44A1.44,1.44,0,0,0,530.64,80.55Z"/><circle class="cls-12" cx="138.82" cy="16.92" r="1.44"/><circle class="cls-12" cx="321.67" cy="70.89" r="1.44"/><path class="cls-12" d="M500,25.14a1.45,1.45,0,0,0,2.89,0,1.45,1.45,0,1,0-2.89,0Z"/><path class="cls-12" d="M566.08,201.21a1.45,1.45,0,1,0,1.44-1.44A1.45,1.45,0,0,0,566.08,201.21Z"/><path class="cls-12" d="M24,185.91a1.44,1.44,0,1,0,1.44-1.45A1.43,1.43,0,0,0,24,185.91Z"/><circle class="cls-12" cx="583.14" cy="125.66" r="1.93"/></g></g></g></g></svg>